<?xml version="1.0"?>
<svg xmlns="http://www.w3.org/2000/svg" height="512px" viewBox="-69 0 512 512" width="512px" class=""><g><path d="m326.808594 105.054688v-92.53125c0-6.90625-5.617188-12.523438-12.523438-12.523438h-21.714844c-6.90625 0-12.523437 5.617188-12.523437 12.523438v91.167968c-14.433594 7.671875-59.835937 35.308594-76.484375 86.683594h-33.660156c-4.792969-14.75-12.398438-28.785156-22.652344-41.789062-2.570312-3.261719-7.296875-3.816407-10.554688-1.246094-3.257812 2.570312-3.816406 7.292968-1.246093 10.554687 10.277343 13.027344 17.546875 27.152344 21.613281 41.980469.894531 3.265625 3.863281 5.527344 7.246094 5.527344h44.847656c3.386719 0 6.355469-2.261719 7.25-5.527344 15.640625-57.054688 73.714844-84.460938 74.292969-84.726562 2.667969-1.226563 4.378906-3.894532 4.378906-6.832032v-93.289062h16.707031v93.292968c0 2.109376.886719 4.121094 2.441406 5.546876 44.179688 40.390624 46.152344 89.628906 43.398438 115.382812-.753906 7.027344-5.636719 12.875-12.449219 14.902344-39.601562 11.785156-74.609375 11.621094-101.234375-.46875-19.90625-9.039063-28.390625-21.714844-28.453125-21.804688-1.378906-2.160156-3.765625-3.46875-6.328125-3.46875h-44.847656c-2.5625 0-4.953125 1.308594-6.332031 3.46875-.328125.511719-33.8125 50.804688-129.6875 22.273438-6.808594-2.027344-11.695313-7.875-12.445313-14.902344-2.757812-25.753906-.785156-74.992188 43.394532-115.382812 1.558593-1.425782 2.445312-3.4375 2.445312-5.546876v-93.292968h16.703125v93.292968c0 2.929688 1.710937 5.597657 4.371094 6.824219.085937.039063 8.589843 4 19.828125 11.945313 3.386718 2.390625 8.078125 1.589844 10.472656-1.800782 2.398438-3.386718 1.589844-8.078124-1.796875-10.472656-7.496094-5.296875-13.867187-8.976562-17.84375-11.105468v-91.1875c-.003906-6.90625-5.621094-12.523438-12.527344-12.523438h-21.714843c-6.90625 0-12.523438 5.617188-12.523438 12.523438v92.527343c-46.6953125 44.417969-48.761719 97.703125-45.757812 125.800781 1.402343 13.070313 10.46875 23.945313 23.105468 27.707032 30.449219 9.058594 74.734375 16.121094 112.808594-1.683594 16.992188-7.945312 26.90625-18.164062 31.234375-23.433594h37.375c4.324219 5.269532 14.238281 15.488282 31.230469 23.433594 17.203125 8.046875 35.679687 11.015625 53.574218 11.015625 21.699219 0 42.546876-4.367187 59.234376-9.332031 12.636718-3.761719 21.707031-14.636719 23.105468-27.707032 3.003906-28.097656.9375-81.382812-45.757812-125.796874zm0 0" data-original="#000000" class="active-path" data-old_color="#F7F6F6" fill="#FCFBFB"/><path d="m345.550781 306.898438c-3.636719-3.160157-8.460937-4.585938-13.226562-3.90625-13.195313 1.867187-34.507813 3.660156-63.347657 5.332031-4.140624.238281-7.304687 3.792969-7.066406 7.9375.238282 4.144531 3.800782 7.316406 7.9375 7.066406 29.25-1.695313 50.976563-3.527344 64.582032-5.457031.597656-.078125 1.019531.15625 1.269531.375.253906.222656.558593.613281.558593 1.226562v32.492188c0 .796875-.597656 1.488281-1.390624 1.601562l-63.214844 9.03125c-5.769532.824219-10.753906 4.675782-13 10.050782l-51.628906 123.332031c-.25.601562-.835938.992187-1.492188.992187h-37.597656c-.65625 0-1.242188-.390625-1.492188-.996094l-51.628906-123.328124c-2.25-5.375-7.230469-9.226563-13-10.050782l-63.214844-9.03125c-.792968-.113281-1.390625-.800781-1.390625-1.601562v-32.492188c0-.613281.304688-1.003906.558594-1.226562.25-.21875.679687-.457032 1.269531-.375 25.90625 3.667968 75.851563 6.289062 113.191406 7.835937 22.898438.949219 46.117188.949219 69.007813.003907l1.609375-.070313c4.144531-.171875 7.367188-3.675781 7.191406-7.820313-.171875-4.148437-3.679687-7.375-7.820312-7.195312l-1.597656.066406c-22.484376.933594-45.285157.933594-67.769532 0-30.285156-1.257812-85.074218-3.929687-111.703125-7.703125-4.769531-.675781-9.59375.75-13.230469 3.90625-3.644531 3.164063-5.734374 7.75-5.734374 12.578125v32.488282c0 8.230468 6.144531 15.316406 14.292968 16.480468l63.214844 9.03125c.5625.078125 1.042969.453125 1.261719.976563l51.628906 123.328125c2.597656 6.210937 8.625 10.222656 15.355469 10.222656h37.597656c6.730469 0 12.757812-4.011719 15.355469-10.21875l51.628906-123.332031c.21875-.519531.703125-.894531 1.261719-.976563l63.214844-9.027344c8.148437-1.167968 14.292968-8.25 14.292968-16.480468v-32.488282c0-4.832031-2.089844-9.414062-5.734375-12.578124zm0 0" data-original="#000000" class="active-path" data-old_color="#F7F6F6" fill="#FCFBFB"/></g> </svg>
